%TF.GenerationSoftware,KiCad,Pcbnew,(5.1.10)-1*%
%TF.CreationDate,2021-10-03T00:56:20+09:00*%
%TF.ProjectId,XH_Board,58485f42-6f61-4726-942e-6b696361645f,rev?*%
%TF.SameCoordinates,Original*%
%TF.FileFunction,Copper,L2,Bot*%
%TF.FilePolarity,Positive*%
%FSLAX46Y46*%
G04 Gerber Fmt 4.6, Leading zero omitted, Abs format (unit mm)*
G04 Created by KiCad (PCBNEW (5.1.10)-1) date 2021-10-03 00:56:20*
%MOMM*%
%LPD*%
G01*
G04 APERTURE LIST*
%TA.AperFunction,ComponentPad*%
%ADD10O,1.700000X2.000000*%
%TD*%
%TA.AperFunction,ComponentPad*%
%ADD11O,1.700000X1.950000*%
%TD*%
%TA.AperFunction,Conductor*%
%ADD12C,0.250000*%
%TD*%
%TA.AperFunction,Conductor*%
%ADD13C,1.000000*%
%TD*%
G04 APERTURE END LIST*
D10*
%TO.P,J4,2*%
%TO.N,Net-(J3-Pad1)*%
X124500000Y-106172000D03*
%TO.P,J4,1*%
%TO.N,Net-(J3-Pad2)*%
%TA.AperFunction,ComponentPad*%
G36*
G01*
X127850000Y-105422000D02*
X127850000Y-106922000D01*
G75*
G02*
X127600000Y-107172000I-250000J0D01*
G01*
X126400000Y-107172000D01*
G75*
G02*
X126150000Y-106922000I0J250000D01*
G01*
X126150000Y-105422000D01*
G75*
G02*
X126400000Y-105172000I250000J0D01*
G01*
X127600000Y-105172000D01*
G75*
G02*
X127850000Y-105422000I0J-250000D01*
G01*
G37*
%TD.AperFunction*%
%TD*%
D11*
%TO.P,J3,6*%
%TO.N,Net-(J1-Pad1)*%
X136937001Y-101185001D03*
%TO.P,J3,5*%
%TO.N,Net-(J1-Pad2)*%
X134437001Y-101185001D03*
%TO.P,J3,4*%
%TO.N,Net-(J2-Pad1)*%
X131937001Y-101185001D03*
%TO.P,J3,3*%
%TO.N,Net-(J2-Pad2)*%
X129437001Y-101185001D03*
%TO.P,J3,2*%
%TO.N,Net-(J3-Pad2)*%
X126937001Y-101185001D03*
%TO.P,J3,1*%
%TO.N,Net-(J3-Pad1)*%
%TA.AperFunction,ComponentPad*%
G36*
G01*
X123587001Y-101910001D02*
X123587001Y-100460001D01*
G75*
G02*
X123837001Y-100210001I250000J0D01*
G01*
X125037001Y-100210001D01*
G75*
G02*
X125287001Y-100460001I0J-250000D01*
G01*
X125287001Y-101910001D01*
G75*
G02*
X125037001Y-102160001I-250000J0D01*
G01*
X123837001Y-102160001D01*
G75*
G02*
X123587001Y-101910001I0J250000D01*
G01*
G37*
%TD.AperFunction*%
%TD*%
D10*
%TO.P,J2,2*%
%TO.N,Net-(J2-Pad2)*%
X129580000Y-96012000D03*
%TO.P,J2,1*%
%TO.N,Net-(J2-Pad1)*%
%TA.AperFunction,ComponentPad*%
G36*
G01*
X132930000Y-95262000D02*
X132930000Y-96762000D01*
G75*
G02*
X132680000Y-97012000I-250000J0D01*
G01*
X131480000Y-97012000D01*
G75*
G02*
X131230000Y-96762000I0J250000D01*
G01*
X131230000Y-95262000D01*
G75*
G02*
X131480000Y-95012000I250000J0D01*
G01*
X132680000Y-95012000D01*
G75*
G02*
X132930000Y-95262000I0J-250000D01*
G01*
G37*
%TD.AperFunction*%
%TD*%
%TO.P,J1,2*%
%TO.N,Net-(J1-Pad2)*%
X134406000Y-106172000D03*
%TO.P,J1,1*%
%TO.N,Net-(J1-Pad1)*%
%TA.AperFunction,ComponentPad*%
G36*
G01*
X137756000Y-105422000D02*
X137756000Y-106922000D01*
G75*
G02*
X137506000Y-107172000I-250000J0D01*
G01*
X136306000Y-107172000D01*
G75*
G02*
X136056000Y-106922000I0J250000D01*
G01*
X136056000Y-105422000D01*
G75*
G02*
X136306000Y-105172000I250000J0D01*
G01*
X137506000Y-105172000D01*
G75*
G02*
X137756000Y-105422000I0J-250000D01*
G01*
G37*
%TD.AperFunction*%
%TD*%
D12*
%TO.N,Net-(J1-Pad2)*%
X134437001Y-106140999D02*
X134406000Y-106172000D01*
D13*
X134437001Y-101185001D02*
X134437001Y-106140999D01*
D12*
%TO.N,Net-(J1-Pad1)*%
X136937001Y-106140999D02*
X136906000Y-106172000D01*
D13*
X136937001Y-101185001D02*
X136937001Y-106140999D01*
D12*
%TO.N,Net-(J2-Pad1)*%
X131937001Y-96154999D02*
X132080000Y-96012000D01*
D13*
X131937001Y-101185001D02*
X131937001Y-96154999D01*
D12*
%TO.N,Net-(J2-Pad2)*%
X129437001Y-96154999D02*
X129580000Y-96012000D01*
D13*
X129437001Y-101185001D02*
X129437001Y-96154999D01*
D12*
%TO.N,Net-(J3-Pad1)*%
X124437001Y-106109001D02*
X124500000Y-106172000D01*
D13*
X124437001Y-101185001D02*
X124437001Y-106109001D01*
D12*
%TO.N,Net-(J3-Pad2)*%
X126937001Y-106109001D02*
X127000000Y-106172000D01*
D13*
X126937001Y-101185001D02*
X126937001Y-106109001D01*
%TD*%
M02*
