%TF.GenerationSoftware,KiCad,Pcbnew,(5.1.10)-1*%
%TF.CreationDate,2021-10-03T00:56:20+09:00*%
%TF.ProjectId,XH_Board,58485f42-6f61-4726-942e-6b696361645f,rev?*%
%TF.SameCoordinates,Original*%
%TF.FileFunction,Legend,Top*%
%TF.FilePolarity,Positive*%
%FSLAX46Y46*%
G04 Gerber Fmt 4.6, Leading zero omitted, Abs format (unit mm)*
G04 Created by KiCad (PCBNEW (5.1.10)-1) date 2021-10-03 00:56:20*
%MOMM*%
%LPD*%
G01*
G04 APERTURE LIST*
%ADD10C,0.120000*%
%ADD11C,0.150000*%
G04 APERTURE END LIST*
D10*
%TO.C,J3*%
X121877001Y-98725001D02*
X121877001Y-104695001D01*
X121877001Y-104695001D02*
X139497001Y-104695001D01*
X139497001Y-104695001D02*
X139497001Y-98725001D01*
X139497001Y-98725001D02*
X121877001Y-98725001D01*
X125187001Y-98735001D02*
X125187001Y-99485001D01*
X125187001Y-99485001D02*
X136187001Y-99485001D01*
X136187001Y-99485001D02*
X136187001Y-98735001D01*
X136187001Y-98735001D02*
X125187001Y-98735001D01*
X121887001Y-98735001D02*
X121887001Y-99485001D01*
X121887001Y-99485001D02*
X123687001Y-99485001D01*
X123687001Y-99485001D02*
X123687001Y-98735001D01*
X123687001Y-98735001D02*
X121887001Y-98735001D01*
X137687001Y-98735001D02*
X137687001Y-99485001D01*
X137687001Y-99485001D02*
X139487001Y-99485001D01*
X139487001Y-99485001D02*
X139487001Y-98735001D01*
X139487001Y-98735001D02*
X137687001Y-98735001D01*
X121887001Y-100985001D02*
X122637001Y-100985001D01*
X122637001Y-100985001D02*
X122637001Y-103935001D01*
X122637001Y-103935001D02*
X130687001Y-103935001D01*
X139487001Y-100985001D02*
X138737001Y-100985001D01*
X138737001Y-100985001D02*
X138737001Y-103935001D01*
X138737001Y-103935001D02*
X130687001Y-103935001D01*
X122837001Y-98435001D02*
X121587001Y-98435001D01*
X121587001Y-98435001D02*
X121587001Y-99685001D01*
D11*
X130353667Y-97087381D02*
X130353667Y-97801667D01*
X130306048Y-97944524D01*
X130210810Y-98039762D01*
X130067953Y-98087381D01*
X129972715Y-98087381D01*
X130734620Y-97087381D02*
X131353667Y-97087381D01*
X131020334Y-97468334D01*
X131163191Y-97468334D01*
X131258429Y-97515953D01*
X131306048Y-97563572D01*
X131353667Y-97658810D01*
X131353667Y-97896905D01*
X131306048Y-97992143D01*
X131258429Y-98039762D01*
X131163191Y-98087381D01*
X130877477Y-98087381D01*
X130782239Y-98039762D01*
X130734620Y-97992143D01*
%TD*%
M02*
